<?xml version="1.0" encoding="utf-8"?>
<!-- Generator: Adobe Illustrator 17.1.0, SVG Export Plug-In . SVG Version: 6.00 Build 0)  -->
<!DOCTYPE svg PUBLIC "-//W3C//DTD SVG 1.1//EN" "http://www.w3.org/Graphics/SVG/1.1/DTD/svg11.dtd">
<svg version="1.1" id="Layer_1" xmlns="http://www.w3.org/2000/svg" xmlns:xlink="http://www.w3.org/1999/xlink" x="0px" y="0px"
	 viewBox="0 63.5 210.5 70" enable-background="new 0 63.5 210.5 70" xml:space="preserve">
<g>
	<g>
		<g>
			
				<linearGradient id="SVGID_1_" gradientUnits="userSpaceOnUse" x1="553.0201" y1="182.7714" x2="530.5812" y2="55.5141" gradientTransform="matrix(0.3442 0 0 -0.3442 0 134.9398)">
				<stop  offset="0" style="stop-color:#FFFFFF"/>
				<stop  offset="0" style="stop-color:#DCDDDE"/>
				<stop  offset="1" style="stop-color:#4D4D4D"/>
			</linearGradient>
			<polygon fill="url(#SVGID_1_)" points="201,73.9 173.6,104.6 178,115 			"/>
			
				<linearGradient id="SVGID_2_" gradientUnits="userSpaceOnUse" x1="497.7" y1="27.9" x2="497.7" y2="88.2" gradientTransform="matrix(0.3442 0 0 -0.3442 0 134.9398)">
				<stop  offset="0" style="stop-color:#E31E27"/>
				<stop  offset="1" style="stop-color:#8F1619"/>
			</linearGradient>
			<polygon fill="url(#SVGID_2_)" points="173.6,104.6 165.3,114.1 170,125.3 177.4,113.1 			"/>
			
				<linearGradient id="SVGID_3_" gradientUnits="userSpaceOnUse" x1="600.2118" y1="167.969" x2="531.3776" y2="48.7447" gradientTransform="matrix(0.3442 0 0 -0.3442 0 134.9398)">
				<stop  offset="0.5" style="stop-color:#E6E6E6"/>
				<stop  offset="1" style="stop-color:#808080"/>
			</linearGradient>
			<polygon fill="url(#SVGID_3_)" points="191.4,123.1 178.1,106.9 201,73.9 			"/>
			<polygon fill="#E42A27" points="171.7,116.1 191.4,123.1 178.1,106.9 			"/>
			<g>
				
					<linearGradient id="SVGID_4_" gradientUnits="userSpaceOnUse" x1="520" y1="81.6" x2="520" y2="75.3649" gradientTransform="matrix(0.3442 0 0 -0.3442 0 134.9398)">
					<stop  offset="0" style="stop-color:#B2141B"/>
					<stop  offset="1" style="stop-color:#620000"/>
				</linearGradient>
				<path fill="url(#SVGID_4_)" d="M179.9,109l-1.8-2.1L179.9,109z"/>
				
					<linearGradient id="SVGID_5_" gradientUnits="userSpaceOnUse" x1="501" y1="54.6" x2="501" y2="27.9432" gradientTransform="matrix(0.3442 0 0 -0.3442 0 134.9398)">
					<stop  offset="0" style="stop-color:#B2141B"/>
					<stop  offset="1" style="stop-color:#620000"/>
				</linearGradient>
				<polygon fill="url(#SVGID_5_)" points="171.7,116.1 170,125.3 174.9,117.3 				"/>
			</g>
			
				<linearGradient id="SVGID_6_" gradientUnits="userSpaceOnUse" x1="504.4309" y1="140.1729" x2="524.3233" y2="97.5137" gradientTransform="matrix(0.3442 0 0 -0.3442 0 134.9398)">
				<stop  offset="0.5" style="stop-color:#E6E6E6"/>
				<stop  offset="1" style="stop-color:#808080"/>
			</linearGradient>
			<polygon fill="url(#SVGID_6_)" points="201,73.9 150.7,109 173.6,104.6 			"/>
			<polygon fill="#E42A27" points="150.7,109 165.3,114.1 173.6,104.6 			"/>
		</g>
		<g>
			<path d="M13.6,114.4H10v-1.3h8.8v1.3h-3.6v10.6h-1.6V114.4z"/>
			<path d="M20,112.4h1.6v5.3h0c0.3-0.4,0.6-0.8,1.1-1.1c0.5-0.3,1-0.4,1.6-0.4c1.2,0,3,0.7,3,3.7v5.1h-1.6v-4.9
				c0-1.4-0.5-2.5-2-2.5c-1,0-1.8,0.7-2.1,1.6c-0.1,0.2-0.1,0.4-0.1,0.7v5.1H20C20,124.9,20,112.4,20,112.4z"/>
			<path d="M30.6,121c0,2.1,1.4,3,2.9,3c1.1,0,1.8-0.2,2.4-0.4l0.3,1.1c-0.5,0.3-1.5,0.5-2.8,0.5c-2.6,0-4.2-1.7-4.2-4.3
				s1.5-4.6,4-4.6c2.8,0,3.5,2.5,3.5,4c0,0.3,0,0.6-0.1,0.7L30.6,121L30.6,121z M35.1,119.9c0-1-0.4-2.5-2.2-2.5
				c-1.6,0-2.2,1.5-2.4,2.5H35.1z"/>
			<path d="M43.6,124.9l-3-11.9h1.6l1.4,6c0.4,1.5,0.7,3,0.9,4.1h0c0.2-1.2,0.6-2.6,1-4.1l1.6-6h1.6l1.5,6c0.3,1.4,0.7,2.8,0.8,4.1
				h0c0.3-1.3,0.6-2.6,0.9-4.1l1.6-6h1.6l-3.4,11.9h-1.6l-1.5-6.2c-0.4-1.5-0.6-2.7-0.8-3.9h0c-0.2,1.2-0.5,2.4-0.9,3.9l-1.7,6.2
				H43.6z"/>
			<path d="M56.7,121c0,2.1,1.4,3,2.9,3c1.1,0,1.8-0.2,2.4-0.4l0.3,1.1c-0.5,0.3-1.5,0.5-2.8,0.5c-2.6,0-4.2-1.7-4.2-4.3
				s1.5-4.6,4-4.6c2.8,0,3.5,2.5,3.5,4c0,0.3,0,0.6-0.1,0.7L56.7,121L56.7,121z M61.3,119.9c0-1-0.4-2.5-2.1-2.5
				c-1.6,0-2.2,1.5-2.4,2.5H61.3z"/>
			<path d="M64.6,124.9c0-0.6,0.1-1.5,0.1-2.2v-10.3h1.5v5.4h0c0.5-0.9,1.5-1.6,2.9-1.6c2.1,0,3.6,1.8,3.6,4.4c0,3-1.9,4.6-3.8,4.6
				c-1.2,0-2.2-0.5-2.9-1.6h0L66,125L64.6,124.9L64.6,124.9z M66.2,121.5c0,0.2,0,0.4,0.1,0.6c0.3,1.1,1.2,1.8,2.3,1.8
				c1.6,0,2.6-1.3,2.6-3.3c0-1.7-0.9-3.2-2.5-3.2c-1.1,0-2,0.7-2.4,1.9c0,0.2-0.1,0.4-0.1,0.6V121.5z"/>
			<path d="M80,113.1v11.9h-1.5V113L80,113.1L80,113.1z"/>
			<path d="M82.8,118.7c0-0.9,0-1.6-0.1-2.3h1.4l0.1,1.4h0c0.4-0.8,1.4-1.6,2.8-1.6c1.2,0,3,0.7,3,3.6v5.1h-1.6V120
				c0-1.4-0.5-2.5-2-2.5c-1,0-1.8,0.7-2.1,1.6c-0.1,0.2-0.1,0.5-0.1,0.7v5.1h-1.6L82.8,118.7L82.8,118.7z"/>
			<path d="M92.9,116.4l1.7,4.8c0.3,0.8,0.5,1.5,0.7,2.2h0c0.2-0.7,0.4-1.4,0.7-2.2l1.7-4.8h1.6l-3.3,8.5h-1.5l-3.2-8.5H92.9z"/>
			<path d="M101.4,121c0,2.1,1.4,3,2.9,3c1.1,0,1.8-0.2,2.4-0.4l0.3,1.1c-0.5,0.3-1.5,0.5-2.8,0.5c-2.6,0-4.2-1.7-4.2-4.3
				s1.5-4.6,4-4.6c2.8,0,3.5,2.5,3.5,4c0,0.3,0,0.6-0.1,0.7L101.4,121L101.4,121z M106,119.9c0-1-0.4-2.5-2.1-2.5
				c-1.6,0-2.2,1.5-2.4,2.5H106z"/>
			<path d="M109.4,119.1c0-1,0-1.9-0.1-2.6h1.4l0,1.7h0.1c0.4-1.2,1.3-1.9,2.4-1.9c0.2,0,0.3,0,0.4,0v1.5c-0.1,0-0.3,0-0.5,0
				c-1.1,0-1.9,0.8-2.1,2c0,0.2-0.1,0.5-0.1,0.7v4.5h-1.5L109.4,119.1L109.4,119.1z"/>
			<path d="M117.4,114v2.5h2.2v1.2h-2.2v4.6c0,1.1,0.3,1.7,1.2,1.7c0.4,0,0.7,0,0.9-0.1l0.1,1.2c-0.3,0.1-0.8,0.2-1.4,0.2
				c-0.7,0-1.3-0.2-1.7-0.7c-0.4-0.5-0.6-1.2-0.6-2.2v-4.6h-1.3v-1.2h1.3v-2L117.4,114z"/>
			<path d="M122.1,121c0,2.1,1.4,3,2.9,3c1.1,0,1.8-0.2,2.4-0.4l0.3,1.1c-0.5,0.3-1.5,0.5-2.8,0.5c-2.6,0-4.2-1.7-4.2-4.3
				s1.5-4.6,4-4.6c2.8,0,3.5,2.5,3.5,4c0,0.3,0,0.6,0,0.7L122.1,121L122.1,121z M126.7,119.9c0-1-0.4-2.5-2.1-2.5
				c-1.6,0-2.2,1.5-2.4,2.5H126.7z"/>
			<path d="M137.4,112.4v10.3c0,0.8,0,1.6,0.1,2.2h-1.4l-0.1-1.5h0c-0.5,0.9-1.5,1.7-2.9,1.7c-2.1,0-3.6-1.7-3.6-4.4
				c0-2.8,1.7-4.6,3.8-4.6c1.3,0,2.2,0.6,2.6,1.3h0v-5.1H137.4z M135.9,119.9c0-0.2,0-0.5-0.1-0.7c-0.2-1-1.1-1.8-2.2-1.8
				c-1.6,0-2.6,1.4-2.6,3.3c0,1.7,0.8,3.2,2.5,3.2c1.1,0,2-0.7,2.3-1.9c0.1-0.2,0.1-0.4,0.1-0.7L135.9,119.9L135.9,119.9z"/>
		</g>
	</g>
	<g enable-background="new    ">
		<path d="M10,98.5l2.2-11.6c0.4-2.3,0.7-4.7,0.9-6.4h2.7c-0.1,1.3-0.3,2.5-0.5,3.9h0.1c1.2-2.5,3.1-4.3,5.5-4.3
			c0.3,0,0.6,0,0.9,0.1l-0.6,3c-0.2,0-0.5-0.1-0.8-0.1c-2.7,0-5.1,3.2-5.8,7.4l-1.5,7.9H10z"/>
		<path d="M33.2,98.5c0-1.1,0.2-2.8,0.4-4.6h-0.1c-2,3.7-4.4,5.1-7,5.1c-3.2,0-5.2-2.5-5.2-5.9c0-6.2,4.6-12.9,12.4-12.9
			c1.7,0,3.6,0.3,4.8,0.7l-1.8,9.4c-0.6,3.1-0.9,6.3-0.8,8.3H33.2z M35.2,82.8c-0.4-0.1-1.1-0.3-2.2-0.3c-4.6,0-8.4,4.9-8.5,9.8
			c0,2,0.7,4,3.1,4c2.6,0,5.6-3.3,6.5-8.1L35.2,82.8z"/>
		<path d="M40.6,98.5l2.4-12.7c0.4-2,0.6-3.8,0.9-5.2h2.7l-0.4,3.5h0.1c1.6-2.5,4-3.9,6.7-3.9c2.2,0,4.6,1.2,4.6,5
			c0,0.8-0.1,1.9-0.3,2.9l-2,10.5h-3.1l2-10.4c0.1-0.7,0.3-1.6,0.3-2.3c0-1.8-0.7-3.2-2.8-3.2c-2.2,0-5.3,2.6-6.1,7.1l-1.6,8.7H40.6
			z"/>
		<path d="M60.7,102.6c1.1,0.7,2.9,1.2,4.8,1.2c3,0,5.4-1.6,6.5-6.4l0.6-2.7h-0.1c-1.6,2.6-3.8,3.8-6.2,3.8c-3.6,0-5.5-3-5.5-6.2
			c0-6.1,4.5-12.1,11.4-12.1c2.1,0,4.3,0.6,5.8,1.3l-2.7,14.9c-0.7,3.8-1.7,6.4-3.6,8c-1.8,1.6-4.2,2-6.3,2c-2.2,0-4.2-0.5-5.4-1.3
			L60.7,102.6z M74.5,83.2c-0.6-0.3-1.7-0.6-3-0.6c-4.5,0-7.6,4.7-7.6,9.1c0,2,0.7,4.3,3.5,4.3c2.6,0,5.3-3.3,6-6.9L74.5,83.2z"/>
		<path d="M80,98.5l5-26.4h3.1L83,98.5H80z"/>
		<path d="M101.4,97.5c-1.3,0.8-3.5,1.4-5.9,1.4c-4.8,0-6.8-3.2-6.8-7.2c0-5.4,4-11.6,9.8-11.6c3.4,0,5.3,2,5.3,4.6
			c0,4.7-5.3,6-12,5.9c-0.1,0.8,0,2.5,0.4,3.4c0.7,1.6,2.2,2.4,4,2.4c2.1,0,3.7-0.7,4.8-1.3L101.4,97.5z M98,82.5
			c-2.9,0-5.1,2.9-5.9,5.7c4.8,0,8.6-0.6,8.6-3.4C100.8,83.4,99.6,82.5,98,82.5z"/>
		<path d="M104.6,96.7c0-1.4,1-2.5,2.3-2.5c1.3,0,2.1,0.9,2.1,2.2c0,1.3-1,2.5-2.4,2.5C105.4,98.9,104.6,98,104.6,96.7z"/>
	</g>
	<g enable-background="new    ">
		<path fill="#E42A27" d="M113.7,98.5l3.5-18h3.1l-3.5,18H113.7z M117.7,75.5c0-1.2,0.9-2.1,2-2.1s1.8,0.8,1.8,1.9
			c0,1.2-0.9,2.1-2.1,2.1C118.4,77.5,117.7,76.6,117.7,75.5z"/>
		<path fill="#E42A27" d="M139.4,87.6c0,5.5-3.9,11.3-10,11.3c-4.5,0-7-3.3-7-7.4c0-5.9,4.1-11.4,10-11.4
			C137.3,80.1,139.4,83.8,139.4,87.6z M125.6,91.4c0,2.9,1.6,5.1,4.2,5.1c3.6,0,6.4-4.7,6.4-8.9c0-2.1-1-5-4.2-5
			C128.2,82.6,125.6,87.3,125.6,91.4z"/>
	</g>
</g>
</svg>
