<?xml version="1.0" encoding="utf-8"?>
<!-- Generator: Adobe Illustrator 17.1.0, SVG Export Plug-In . SVG Version: 6.00 Build 0)  -->
<!DOCTYPE svg PUBLIC "-//W3C//DTD SVG 1.1//EN" "http://www.w3.org/Graphics/SVG/1.1/DTD/svg11.dtd">
<svg version="1.1" id="Layer_1" xmlns="http://www.w3.org/2000/svg" xmlns:xlink="http://www.w3.org/1999/xlink" x="0px" y="0px"
	 viewBox="35.2 34.2 129.5 131.6" enable-background="new 35.2 34.2 129.5 131.6" xml:space="preserve">
<g>
	<g>
		<g>
			<path d="M38.9,154.9h-3.6v-1.3h8.9v1.3h-3.6v10.7H39v-10.7H38.9z"/>
			<path d="M45.3,152.9h1.6v5.4l0,0c0.3-0.4,0.6-0.8,1.1-1.1s1-0.4,1.6-0.4c1.2,0,3,0.7,3,3.7v5.2H51v-5c0-1.4-0.5-2.6-2-2.6
				c-1,0-1.8,0.7-2.1,1.6c-0.1,0.2-0.1,0.4-0.1,0.7v5.2h-1.6L45.3,152.9L45.3,152.9z"/>
			<path d="M55.9,161.5c0,2.1,1.4,3,3,3c1.1,0,1.8-0.2,2.4-0.4l0.3,1.1c-0.5,0.3-1.5,0.6-2.8,0.6c-2.6,0-4.2-1.8-4.2-4.4
				s1.5-4.7,4-4.7c2.8,0,3.5,2.5,3.5,4.1c0,0.3,0,0.6-0.1,0.7L55.9,161.5L55.9,161.5z M60.5,160.4c0-1-0.4-2.5-2.2-2.5
				c-1.6,0-2.3,1.5-2.4,2.5H60.5z"/>
			<path d="M69,165.6l-3-12.1h1.6l1.4,6.1c0.4,1.5,0.7,3,0.9,4.2l0,0c0.2-1.2,0.6-2.6,1-4.2l1.6-6.1h1.6l1.5,6.1
				c0.3,1.4,0.7,2.9,0.8,4.1l0,0c0.3-1.3,0.6-2.6,0.9-4.2l1.6-6.1h1.6l-3.4,12.1h-1.6l-1.5-6.3c-0.4-1.5-0.6-2.7-0.8-3.9l0,0
				c-0.2,1.2-0.5,2.4-0.9,3.9l-1.7,6.3L69,165.6L69,165.6z"/>
			<path d="M82.2,161.5c0,2.1,1.4,3,3,3c1.1,0,1.8-0.2,2.4-0.4l0.3,1.1c-0.5,0.3-1.5,0.6-2.8,0.6c-2.7,0-4.2-1.8-4.2-4.4
				s1.5-4.7,4-4.7c2.8,0,3.5,2.5,3.5,4.1c0,0.3,0,0.6-0.1,0.7L82.2,161.5L82.2,161.5z M86.7,160.4c0-1-0.4-2.5-2.1-2.5
				c-1.6,0-2.3,1.5-2.4,2.5H86.7z"/>
			<path d="M90.1,165.6c0-0.6,0.1-1.5,0.1-2.2V153h1.5v5.4l0,0c0.5-1,1.5-1.6,2.9-1.6c2.1,0,3.6,1.8,3.6,4.4c0,3.1-1.9,4.6-3.8,4.6
				c-1.2,0-2.2-0.5-2.9-1.6l0,0l-0.1,1.4L90.1,165.6L90.1,165.6z M91.7,162.1c0,0.2,0,0.4,0.1,0.6c0.3,1.1,1.2,1.8,2.3,1.8
				c1.6,0,2.6-1.4,2.6-3.3c0-1.7-0.9-3.2-2.5-3.2c-1.1,0-2,0.7-2.4,1.9c0,0.2-0.1,0.4-0.1,0.6V162.1z"/>
			<path d="M105.5,153.5v12.1H104v-12.1H105.5z"/>
			<path d="M108.3,159.3c0-0.9,0-1.6-0.1-2.4h1.4l0.1,1.4l0,0c0.4-0.8,1.4-1.6,2.8-1.6c1.2,0,3,0.7,3,3.7v5.2H114v-5
				c0-1.4-0.5-2.5-2-2.5c-1,0-1.8,0.7-2.1,1.6c-0.1,0.2-0.1,0.5-0.1,0.7v5.2h-1.6L108.3,159.3L108.3,159.3z"/>
			<path d="M118.5,156.9l1.7,4.9c0.3,0.8,0.5,1.5,0.7,2.2l0,0c0.2-0.7,0.4-1.4,0.7-2.2l1.7-4.9h1.6l-3.4,8.6H120l-3.2-8.6H118.5z"/>
			<path d="M127.1,161.5c0,2.1,1.4,3,3,3c1.1,0,1.8-0.2,2.4-0.4l0.3,1.1c-0.5,0.3-1.5,0.6-2.8,0.6c-2.7,0-4.2-1.8-4.2-4.4
				s1.5-4.7,4-4.7c2.8,0,3.5,2.5,3.5,4.1c0,0.3,0,0.6-0.1,0.7L127.1,161.5L127.1,161.5z M131.6,160.4c0-1-0.4-2.5-2.1-2.5
				c-1.6,0-2.3,1.5-2.4,2.5H131.6z"/>
			<path d="M135,159.6c0-1,0-1.9-0.1-2.7h1.4v1.7h0.1c0.4-1.2,1.3-1.9,2.4-1.9c0.2,0,0.3,0,0.4,0v1.5c-0.1,0-0.3,0-0.5,0
				c-1.1,0-1.9,0.8-2.1,2c0,0.2-0.1,0.5-0.1,0.7v4.6H135L135,159.6L135,159.6z"/>
			<path d="M143.1,154.4v2.5h2.2v1.2h-2.2v4.7c0,1.1,0.3,1.7,1.2,1.7c0.4,0,0.7,0,0.9-0.1l0.1,1.2c-0.3,0.1-0.8,0.2-1.4,0.2
				c-0.7,0-1.3-0.2-1.7-0.7s-0.6-1.3-0.6-2.2v-4.7h-1.3V157h1.3v-2.1L143.1,154.4z"/>
			<path d="M147.8,161.5c0,2.1,1.4,3,3,3c1.1,0,1.8-0.2,2.4-0.4l0.3,1.1c-0.5,0.3-1.5,0.6-2.8,0.6c-2.6,0-4.2-1.8-4.2-4.4
				s1.5-4.7,4-4.7c2.8,0,3.5,2.5,3.5,4.1c0,0.3,0,0.6,0,0.7L147.8,161.5L147.8,161.5z M152.4,160.4c0-1-0.4-2.5-2.1-2.5
				c-1.6,0-2.3,1.5-2.4,2.5H152.4z"/>
			<path d="M163.2,152.9v10.5c0,0.8,0,1.7,0.1,2.2h-1.4l-0.1-1.5l0,0c-0.5,1-1.5,1.7-2.9,1.7c-2.1,0-3.6-1.8-3.6-4.4
				c0-2.9,1.7-4.6,3.8-4.6c1.3,0,2.2,0.6,2.6,1.3l0,0v-5.2H163.2z M161.6,160.4c0-0.2,0-0.5-0.1-0.7c-0.2-1-1.1-1.8-2.3-1.8
				c-1.6,0-2.6,1.4-2.6,3.3c0,1.8,0.8,3.2,2.5,3.2c1.1,0,2-0.7,2.3-1.9c0.1-0.2,0.1-0.4,0.1-0.7L161.6,160.4L161.6,160.4z"/>
		</g>
	</g>
	<g enable-background="new    ">
		<path d="M35.2,140.1l2.2-11.6c0.4-2.3,0.7-4.7,0.9-6.4H41c-0.1,1.3-0.3,2.5-0.5,3.9h0.1c1.2-2.5,3.1-4.3,5.5-4.3
			c0.3,0,0.6,0,0.9,0.1l-0.6,3c-0.2,0-0.5-0.1-0.8-0.1c-2.7,0-5.1,3.2-5.8,7.4l-1.5,7.9h-3.1V140.1z"/>
		<path d="M58.4,140.1c0-1.1,0.2-2.8,0.4-4.6h-0.1c-2,3.7-4.4,5.1-7,5.1c-3.2,0-5.2-2.5-5.2-5.9c0-6.2,4.6-12.9,12.4-12.9
			c1.7,0,3.6,0.3,4.8,0.7l-1.8,9.4c-0.6,3.1-0.9,6.3-0.8,8.3h-2.7V140.1z M60.4,124.5c-0.4-0.1-1.1-0.3-2.2-0.3
			c-4.6,0-8.4,4.9-8.5,9.8c0,2,0.7,4,3.1,4c2.6,0,5.6-3.3,6.5-8.1L60.4,124.5z"/>
		<path d="M65.9,140.1l2.4-12.7c0.4-2,0.6-3.8,0.9-5.2h2.7l-0.4,3.5h0.1c1.6-2.5,4-3.9,6.7-3.9c2.2,0,4.6,1.2,4.6,5
			c0,0.8-0.1,1.9-0.3,2.9l-2,10.5h-3.1l2-10.4c0.1-0.7,0.3-1.6,0.3-2.3c0-1.8-0.7-3.2-2.8-3.2c-2.2,0-5.3,2.6-6.1,7.1l-1.6,8.7
			L65.9,140.1L65.9,140.1z"/>
		<path d="M85.9,144.2c1.1,0.7,2.9,1.2,4.8,1.2c3,0,5.4-1.6,6.5-6.4l0.6-2.7h-0.1c-1.6,2.6-3.8,3.8-6.2,3.8c-3.6,0-5.5-3-5.5-6.2
			c0-6.1,4.5-12.1,11.4-12.1c2.1,0,4.3,0.6,5.8,1.3l-2.7,14.9c-0.7,3.8-1.7,6.4-3.6,8c-1.8,1.6-4.2,2-6.3,2c-2.2,0-4.2-0.5-5.4-1.3
			L85.9,144.2z M99.7,124.8c-0.6-0.3-1.7-0.6-3-0.6c-4.5,0-7.6,4.7-7.6,9.1c0,2,0.7,4.3,3.5,4.3c2.6,0,5.3-3.3,6-6.9L99.7,124.8z"/>
		<path d="M105.2,140.1l5-26.4h3.1l-5.1,26.4H105.2z"/>
		<path d="M126.7,139.1c-1.3,0.8-3.5,1.4-5.9,1.4c-4.8,0-6.8-3.2-6.8-7.2c0-5.4,4-11.6,9.8-11.6c3.4,0,5.3,2,5.3,4.6
			c0,4.7-5.3,6-12,5.9c-0.1,0.8,0,2.5,0.4,3.4c0.7,1.6,2.2,2.4,4,2.4c2.1,0,3.7-0.7,4.8-1.3L126.7,139.1z M123.3,124.2
			c-2.9,0-5.1,2.9-5.9,5.7c4.8,0,8.6-0.6,8.6-3.4C126,125,124.9,124.2,123.3,124.2z"/>
		<path d="M129.8,138.4c0-1.4,1-2.5,2.3-2.5s2.1,0.9,2.1,2.2s-1,2.5-2.4,2.5C130.6,140.6,129.8,139.6,129.8,138.4z"/>
	</g>
	<g enable-background="new    ">
		<path fill="#E42A27" d="M138.9,140.1l3.5-18h3.1l-3.5,18H138.9z M142.9,117.1c0-1.2,0.9-2.1,2-2.1s1.8,0.8,1.8,1.9
			c0,1.2-0.9,2.1-2.1,2.1C143.7,119.1,142.9,118.3,142.9,117.1z"/>
		<path fill="#E42A27" d="M164.7,129.3c0,5.5-3.9,11.3-10,11.3c-4.5,0-7-3.3-7-7.4c0-5.9,4.1-11.4,10-11.4
			C162.5,121.8,164.7,125.4,164.7,129.3z M150.9,133.1c0,2.9,1.6,5.1,4.2,5.1c3.6,0,6.4-4.7,6.4-8.9c0-2.1-1-5-4.2-5
			C153.5,124.2,150.9,128.9,150.9,133.1z"/>
	</g>
	<g>
		
			<linearGradient id="SVGID_1_" gradientUnits="userSpaceOnUse" x1="330.9696" y1="34.2759" x2="301.9858" y2="198.6508" gradientTransform="matrix(0.3442 0 0 0.3442 0 19.9724)">
			<stop  offset="0" style="stop-color:#FFFFFF"/>
			<stop  offset="0" style="stop-color:#DCDDDE"/>
			<stop  offset="1" style="stop-color:#4D4D4D"/>
		</linearGradient>
		<polygon fill="url(#SVGID_1_)" points="127.7,34.2 92.3,73.8 98,87.3 		"/>
		
			<linearGradient id="SVGID_2_" gradientUnits="userSpaceOnUse" x1="259.5875" y1="234.4" x2="259.5875" y2="156.5" gradientTransform="matrix(0.3442 0 0 0.3442 0 19.9724)">
			<stop  offset="0" style="stop-color:#E31E27"/>
			<stop  offset="1" style="stop-color:#8F1619"/>
		</linearGradient>
		<polygon fill="url(#SVGID_2_)" points="92.3,73.8 81.5,86.2 87.7,100.7 97.2,85 		"/>
		
			<linearGradient id="SVGID_3_" gradientUnits="userSpaceOnUse" x1="391.9853" y1="53.4481" x2="303.0942" y2="207.4119" gradientTransform="matrix(0.3442 0 0 0.3442 0 19.9724)">
			<stop  offset="0.5" style="stop-color:#E6E6E6"/>
			<stop  offset="1" style="stop-color:#808080"/>
		</linearGradient>
		<polygon fill="url(#SVGID_3_)" points="115.3,97.7 98.1,76.8 127.7,34.2 		"/>
		<polygon fill="#E42A27" points="89.8,88.8 115.3,97.7 98.1,76.8 		"/>
		<g>
			
				<linearGradient id="SVGID_4_" gradientUnits="userSpaceOnUse" x1="288.3498" y1="165.0753" x2="288.3498" y2="173.1314" gradientTransform="matrix(0.3442 0 0 0.3442 0 19.9724)">
				<stop  offset="0" style="stop-color:#B2141B"/>
				<stop  offset="1" style="stop-color:#620000"/>
			</linearGradient>
			<path fill="url(#SVGID_4_)" d="M100.4,79.6l-2.3-2.8L100.4,79.6z"/>
			
				<linearGradient id="SVGID_5_" gradientUnits="userSpaceOnUse" x1="263.9454" y1="199.964" x2="263.9454" y2="234.406" gradientTransform="matrix(0.3442 0 0 0.3442 0 19.9724)">
				<stop  offset="0" style="stop-color:#B2141B"/>
				<stop  offset="1" style="stop-color:#620000"/>
			</linearGradient>
			<polygon fill="url(#SVGID_5_)" points="89.8,88.8 87.7,100.7 94,90.3 			"/>
		</g>
		
			<linearGradient id="SVGID_6_" gradientUnits="userSpaceOnUse" x1="268.2224" y1="89.355" x2="293.9197" y2="144.4631" gradientTransform="matrix(0.3442 0 0 0.3442 0 19.9724)">
			<stop  offset="0.5" style="stop-color:#E6E6E6"/>
			<stop  offset="1" style="stop-color:#808080"/>
		</linearGradient>
		<polygon fill="url(#SVGID_6_)" points="127.7,34.2 62.7,79.6 92.3,73.8 		"/>
		<polygon fill="#E42A27" points="62.7,79.6 81.5,86.2 92.3,73.8 		"/>
	</g>
</g>
</svg>
