<?xml version="1.0" encoding="utf-8"?>
<!-- Generator: Adobe Illustrator 17.1.0, SVG Export Plug-In . SVG Version: 6.00 Build 0)  -->
<!DOCTYPE svg PUBLIC "-//W3C//DTD SVG 1.1//EN" "http://www.w3.org/Graphics/SVG/1.1/DTD/svg11.dtd">
<svg version="1.1" id="Layer_1" xmlns="http://www.w3.org/2000/svg" xmlns:xlink="http://www.w3.org/1999/xlink" x="0px" y="0px"
	 viewBox="0 0 200 200" enable-background="new 0 0 200 200" xml:space="preserve">
<g id="Desktop_Admin">
	<g id="Grid">
	</g>
	<g id="Mentor_Block">
	</g>
</g>
<g id="Desktop_Admin_1_">
	<g id="Grid_1_">
	</g>
	<g id="Mentor_Block_1_">
	</g>
</g>
<g>
	<g>
		<path fill="#059792" d="M165.3,87V68c0-2.8-2.2-5-5-5H39.7c-2.8,0-5,2.2-5,5v19H165.3z"/>
		<path fill="#059792" d="M34.7,91v61c0,2.8,2.2,5,5,5h120.5c2.8,0,5-2.2,5-5V91H34.7z"/>
	</g>
	<path fill="#FAA434" d="M74.1,91c0.5,5.3,2.6,9.4,7.5,10.7c0.1,0,0.2,0.1,0.3,0.1c3.2,0.9,5.6,2,5.6,5.5v5.5
		c0,6.8,5.5,12.4,12.3,12.4c6.8,0,12.3-5.5,12.3-12.4v-5.5c0-3.5,2.4-4.6,5.6-5.5c0.1,0,0.2-0.1,0.4-0.1c4.9-1.3,6.9-5.4,7.4-10.7
		H74.1z M94.7,118.2l2.4-4.2c-1.1-1-1.8-2.6-1.8-4.4c0-3,2-5.4,4.4-5.4s4.4,2.4,4.4,5.4c0,1.8-0.7,3.4-1.8,4.4l2.4,4.2H94.7z"/>
	<path fill="#FAA434" d="M117.9,76.3c-0.1,0-0.2-0.1-0.3-0.1c-1.5-0.4-34.2-0.5-35.7,0c-0.1,0-0.2,0.1-0.4,0.1
		c-4.9,1.3-6.9,5.4-7.4,10.7h51.3C124.9,81.7,122.8,77.6,117.9,76.3z"/>
	<path fill="none" stroke="#059792" stroke-width="6" stroke-miterlimit="10" d="M99,43c-19.3,0-35,15.7-35,35h70
		C134,58.7,118.3,43,99,43z"/>
</g>
</svg>
