<?xml version="1.0" encoding="utf-8"?>
<!-- Generator: Adobe Illustrator 17.1.0, SVG Export Plug-In . SVG Version: 6.00 Build 0)  -->
<!DOCTYPE svg PUBLIC "-//W3C//DTD SVG 1.1//EN" "http://www.w3.org/Graphics/SVG/1.1/DTD/svg11.dtd">
<svg version="1.1" id="Layer_1" xmlns="http://www.w3.org/2000/svg" xmlns:xlink="http://www.w3.org/1999/xlink" x="0px" y="0px"
	 viewBox="0 0 200 200" enable-background="new 0 0 200 200" xml:space="preserve">
<g id="Desktop_Admin">
	<g id="Grid">
	</g>
	<g id="Mentor_Block">
	</g>
</g>
<g id="Desktop_Admin_1_">
	<g id="Grid_1_">
	</g>
	<g id="Mentor_Block_1_">
	</g>
</g>
<g>
	<g>
		<path fill="#059792" d="M200,80.1V50.9c0-4.2-3.4-7.7-7.7-7.7H7.7c-4.2,0-7.7,3.4-7.7,7.7v29.2H200z"/>
		<path fill="#059792" d="M0,86.2v93.4c0,4.2,3.4,7.7,7.7,7.7h184.7c4.2,0,7.7-3.4,7.7-7.7V86.2H0z"/>
	</g>
	<path fill="#FAA434" d="M60.3,86.2c0.7,8.2,4,14.4,11.4,16.4c0.2,0,0.4,0.1,0.5,0.2c4.9,1.4,8.5,3.1,8.5,8.5v8.4
		c0,10.4,8.4,18.9,18.8,18.9c10.4,0,18.8-8.5,18.8-18.9v-8.4c0-5.4,3.6-7,8.5-8.4c0.2,0,0.4-0.2,0.6-0.2c7.4-2,10.6-8.2,11.4-16.4
		H60.3z M91.9,127.8l3.7-6.5c-1.7-1.5-2.8-4-2.8-6.8c0-4.6,3-8.3,6.7-8.3c3.7,0,6.7,3.7,6.7,8.3c0,2.8-1.1,5.2-2.8,6.8l3.7,6.5H91.9
		z"/>
	<path fill="#FAA434" d="M127.4,63.7c-0.2,0-55.6,0-55.8,0c-7.4,2-10.6,8.2-11.4,16.4h78.6C138.1,71.9,134.9,65.7,127.4,63.7z"/>
	<path fill="none" stroke="#059792" stroke-width="6" stroke-miterlimit="10" d="M98.5,12.7c-29.6,0-53.6,24-53.6,53.6h107.3
		C152.1,36.7,128.1,12.7,98.5,12.7z"/>
</g>
<path fill="#FAA434" d="M71.9,63.7"/>
</svg>
