<?xml version="1.0" encoding="utf-8"?>
<!-- Generator: Adobe Illustrator 17.1.0, SVG Export Plug-In . SVG Version: 6.00 Build 0)  -->
<!DOCTYPE svg PUBLIC "-//W3C//DTD SVG 1.1//EN" "http://www.w3.org/Graphics/SVG/1.1/DTD/svg11.dtd">
<svg version="1.1" id="Layer_1" xmlns="http://www.w3.org/2000/svg" xmlns:xlink="http://www.w3.org/1999/xlink" x="0px" y="0px"
	 viewBox="362 146 500 500" enable-background="new 362 146 500 500" xml:space="preserve">
<g id="Layer_1_1_">
	<path fill="#E41E25" d="M797.5,340.2c0-58.4-47.9-106.3-106.3-106.3c-31.3,0-59.4,13.5-79.2,35.4c-19.8-21.9-47.9-35.4-79.2-35.4
		c-58.4,0-106.3,47.9-106.3,106.3c0,31.3,13.5,59.4,35.4,79.2l115.7,115.7c11.5,11.5,22.9,22.9,34.4,22.9s22.9-11.5,34.4-22.9
		l116.7-116.7l0,0C783.9,399.6,797.5,371.5,797.5,340.2z M700.6,420.5H636v64.6H588v-64.6h-64.6v-47.9H588v-64.6H636v64.6h64.6
		V420.5z"/>
</g>
<g id="Desktop_Admin">
	<g id="Grid">
	</g>
	<g id="Mentor_Block">
	</g>
</g>
</svg>
