<?xml version="1.0" encoding="utf-8"?>
<!-- Generator: Adobe Illustrator 17.1.0, SVG Export Plug-In . SVG Version: 6.00 Build 0)  -->
<!DOCTYPE svg PUBLIC "-//W3C//DTD SVG 1.1//EN" "http://www.w3.org/Graphics/SVG/1.1/DTD/svg11.dtd">
<svg version="1.1" xmlns="http://www.w3.org/2000/svg" xmlns:xlink="http://www.w3.org/1999/xlink" x="0px" y="0px"
	 viewBox="0 0 76.7 76" enable-background="new 0 0 76.7 76" xml:space="preserve">
<g id="Layer_1">
	<path fill="#E41E25" d="M55.3,35.8c0-5.6-4.6-10.2-10.2-10.2c-3,0-5.7,1.3-7.6,3.4c-1.9-2.1-4.6-3.4-7.6-3.4
		c-5.6,0-10.2,4.6-10.2,10.2c0,3,1.3,5.7,3.4,7.6l11.1,11.1c1.1,1.1,2.2,2.2,3.3,2.2c1.1,0,2.2-1.1,3.3-2.2L52,43.3h0
		C54,41.5,55.3,38.8,55.3,35.8z M46,43.5h-6.2v6.2h-4.6v-6.2H29v-4.6h6.2v-6.2h4.6v6.2H46V43.5z"/>
</g>
<g id="Desktop_Admin">
	<g id="Grid">
	</g>
	<g id="Mentor_Block">
	</g>
</g>
</svg>
