<?xml version="1.0" encoding="utf-8"?>
<!-- Generator: Adobe Illustrator 17.1.0, SVG Export Plug-In . SVG Version: 6.00 Build 0)  -->
<!DOCTYPE svg PUBLIC "-//W3C//DTD SVG 1.1//EN" "http://www.w3.org/Graphics/SVG/1.1/DTD/svg11.dtd">
<svg version="1.1" id="Layer_1" xmlns="http://www.w3.org/2000/svg" xmlns:xlink="http://www.w3.org/1999/xlink" x="0px" y="0px"
	 viewBox="362 146 500 500" enable-background="new 362 146 500 500" xml:space="preserve">
<g id="Layer_1_1_">
	<path fill="#059792" d="M847.7,325.3c-6.3-7.3-13.5-13.5-20.8-19.8c-5.2-4.2-10.4-6.3-16.7-9.4s-12.5-7.3-19.8-10.4
		c-3.1-2.1-5.2-4.2-5.2-8.3c1-8.3-3.1-13.5-8.3-18.8c-17.7-16.7-35.4-34.4-52.1-52.1c-14.6-15.6-32.3-22.9-53.1-26.1
		c-36.5-4.2-71.9,2.1-106.3,13.5c0,0,0,0-1,1c8.3,8.3,16.7,16.7,25,25c1,1,3.1,1,5.2,1c16.7-1,34.4,0,51.1,6.3
		c13.5,4.2,25,11.5,33.3,24c3.1,4.2,3.1,8.3,0,11.5c-3.1,4.2-7.3,9.4-10.4,13.5c-20.8,20.8-56.3,56.3-113.6,113.6
		c-9.4-5.2-21.9-3.1-30.2,5.2L381.8,538.9c-7.3,10.4-11.5,24-8.3,37.5c3.1,17.7,17.7,31.3,35.4,35.4c14.6,3.1,27.1-1,37.5-8.3
		l142.8-142.8c8.3-8.3,9.4-20.8,5.2-30.2c54.2-54.2,83.4-83.4,102.1-101.1c3.1-3.1,8.3-6.3,12.5-9.4c13.5-7.3,29.2-4.2,37.5,9.4
		c3.1,5.2,6.3,12.5,7.3,18.8c1,9.4,6.3,15.6,11.5,21.9c5.2,6.3,11.5,11.5,17.7,17.7c6.3,6.3,9.4,6.3,15.6,1
		c11.5-10.4,21.9-21.9,32.3-32.3c5.2-5.2,11.5-11.5,16.7-16.7C852.9,333.6,852.9,330.5,847.7,325.3z M427.7,575.4L410,557.6
		l132.3-132.3L560,443L427.7,575.4z"/>
</g>
<g id="Desktop_Admin">
	<g id="Grid">
	</g>
	<g id="Mentor_Block">
	</g>
</g>
</svg>
