<?xml version="1.0" encoding="utf-8"?>
<!-- Generator: Adobe Illustrator 17.1.0, SVG Export Plug-In . SVG Version: 6.00 Build 0)  -->
<!DOCTYPE svg PUBLIC "-//W3C//DTD SVG 1.1//EN" "http://www.w3.org/Graphics/SVG/1.1/DTD/svg11.dtd">
<svg version="1.1" id="Layer_1" xmlns="http://www.w3.org/2000/svg" xmlns:xlink="http://www.w3.org/1999/xlink" x="0px" y="0px"
	 viewBox="0 0 200 200" enable-background="new 0 0 200 200" xml:space="preserve">
<g>
	<g id="Layer_1_1_">
		<path fill="#E41E25" d="M157.9,148.3h-15.6V164h-11.6v-15.6H115v-11.6h15.6v-15.6h11.6v15.6h15.6V148.3z"/>
	</g>
	<g id="Desktop_Admin">
		<g id="Grid">
		</g>
		<g id="Mentor_Block">
		</g>
	</g>
	<g>
		<g>
			<path fill="#E41E25" d="M58.2,56.8h85.7c-0.8-8.9-4.3-15.7-12.5-17.9c-0.2,0-0.4-0.1-0.6-0.2c-5.4-1.5-9.3-3.3-9.3-9.2v-9.2
				c0-11.4-9.1-20.7-20.5-20.7S80.5,8.9,80.5,20.3v9.2c0,5.8-3.9,7.7-9.3,9.2c-0.2,0-0.4,0.2-0.6,0.2C62.5,41.1,59.1,47.9,58.2,56.8
				z M101.1,14.2c3.4,0,6.2,2.8,6.2,6.2c0,3.4-2.8,6.2-6.2,6.2s-6.2-2.8-6.2-6.2C94.9,16.9,97.7,14.2,101.1,14.2z"/>
			<path fill="#059792" d="M167.4,13.5h-32.8V20c0,4.7,3.9,8.3,8.5,8.3h16.6c3,0,5.4,2.5,5.5,5.6l0,146c-0.1,2.9-2.4,5.2-5.1,5.4
				l-118,0c-2.8-0.2-5-2.5-5.1-5.4l0-146.1c0.1-3,2.6-5.6,5.6-5.6h16.6c4.6,0,8.5-3.5,8.5-8.3v-6.5H34.8c-6.7,0-12.2,5.8-12.2,12.8
				v160.9c0,6.9,5.5,12.5,12.2,12.5h66.3h66.3c6.7,0,12.2-5.6,12.2-12.5V26.3C179.6,19.4,174.1,13.5,167.4,13.5z"/>
		</g>
		<rect x="51.1" y="71.1" fill="#059792" width="50" height="7.1"/>
		<rect x="51.1" y="114" fill="#059792" width="71.4" height="7.1"/>
		<rect x="51.1" y="156.8" fill="#059792" width="57.6" height="7.1"/>
		<rect x="51.1" y="135.4" fill="#059792" width="45.1" height="7.1"/>
		<rect x="51.1" y="92.5" fill="#059792" width="92.8" height="7.1"/>
	</g>
</g>
</svg>
