<?xml version="1.0" encoding="utf-8"?>
<!-- Generator: Adobe Illustrator 17.1.0, SVG Export Plug-In . SVG Version: 6.00 Build 0)  -->
<!DOCTYPE svg PUBLIC "-//W3C//DTD SVG 1.1//EN" "http://www.w3.org/Graphics/SVG/1.1/DTD/svg11.dtd">
<svg version="1.1" id="Layer_1" xmlns="http://www.w3.org/2000/svg" xmlns:xlink="http://www.w3.org/1999/xlink" x="0px" y="0px"
	 viewBox="0 0 200 200" enable-background="new 0 0 200 200" xml:space="preserve">
<g id="Layer_1_1_">
	<path fill="#E41E25" d="M133,128.1h-9.4v9.4h-6.9v-9.4h-9.4v-6.9h9.4v-9.4h6.9v9.4h9.4V128.1z"/>
</g>
<g id="Desktop_Admin">
	<g id="Grid">
	</g>
	<g id="Mentor_Block">
	</g>
</g>
<g>
	<g>
		<path fill="#E41E25" d="M73.4,73.3h51.3c-0.5-5.3-2.6-9.4-7.5-10.7c-0.1,0-0.2-0.1-0.3-0.1c-3.2-0.9-5.6-2-5.6-5.5v-5.5
			c0-6.8-5.5-12.4-12.3-12.4s-12.3,5.5-12.3,12.4V57c0,3.5-2.4,4.6-5.6,5.5c-0.1,0-0.2,0.1-0.4,0.1C75.9,63.9,73.9,68,73.4,73.3z
			 M99,47.8c2,0,3.7,1.7,3.7,3.7c0,2.1-1.7,3.7-3.7,3.7c-2,0-3.7-1.7-3.7-3.7C95.3,49.5,97,47.8,99,47.8z"/>
		<path fill="#059792" d="M138.7,47.4H119v3.9c0,2.8,2.3,4.9,5.1,4.9h9.9c1.8,0,3.2,1.5,3.3,3.3l0,87.4c-0.1,1.7-1.4,3.1-3.1,3.2
			l-70.6,0c-1.7-0.1-3-1.5-3.1-3.2l0-87.4c0.1-1.8,1.6-3.3,3.3-3.3h10c2.8,0,5.1-2.1,5.1-4.9v-3.9H59.3c-4,0-7.3,3.5-7.3,7.6v96.2
			c0,4.1,3.3,7.5,7.3,7.5H99h39.7c4,0,7.3-3.3,7.3-7.5V55.1C146,50.9,142.7,47.4,138.7,47.4z"/>
	</g>
	<rect x="69.1" y="81.9" fill="#059792" width="29.9" height="4.3"/>
	<rect x="69.1" y="107.5" fill="#059792" width="42.7" height="4.3"/>
	<rect x="69.1" y="133.1" fill="#059792" width="34.4" height="4.3"/>
	<rect x="69.1" y="120.3" fill="#059792" width="27" height="4.3"/>
	<rect x="69.1" y="94.7" fill="#059792" width="55.5" height="4.3"/>
</g>
</svg>
