<?xml version="1.0" encoding="utf-8"?>
<!-- Generator: Adobe Illustrator 17.1.0, SVG Export Plug-In . SVG Version: 6.00 Build 0)  -->
<!DOCTYPE svg PUBLIC "-//W3C//DTD SVG 1.1//EN" "http://www.w3.org/Graphics/SVG/1.1/DTD/svg11.dtd">
<svg version="1.1" xmlns="http://www.w3.org/2000/svg" xmlns:xlink="http://www.w3.org/1999/xlink" x="0px" y="0px"
	 viewBox="0 0 64.8 76" enable-background="new 0 0 64.8 76" xml:space="preserve">
<g id="Layer_1">
	<path fill="#059792" d="M54.8,34.3c-0.6-0.7-1.3-1.3-2-1.9c-0.5-0.4-1-0.6-1.6-0.9c-0.6-0.3-1.2-0.7-1.9-1
		c-0.3-0.2-0.5-0.4-0.5-0.8c0.1-0.8-0.3-1.3-0.8-1.8c-1.7-1.6-3.4-3.3-5-5c-1.4-1.5-3.1-2.2-5.1-2.5c-3.5-0.4-6.9,0.2-10.2,1.3
		c0,0,0,0-0.1,0.1c0.8,0.8,1.6,1.6,2.4,2.4c0.1,0.1,0.3,0.1,0.5,0.1c1.6-0.1,3.3,0,4.9,0.6c1.3,0.4,2.4,1.1,3.2,2.3
		c0.3,0.4,0.3,0.8,0,1.1c-0.3,0.4-0.7,0.9-1,1.3c-2,2-5.4,5.4-10.9,10.9c-0.9-0.5-2.1-0.3-2.9,0.5L10.1,54.8c-0.7,1-1.1,2.3-0.8,3.6
		c0.3,1.7,1.7,3,3.4,3.4c1.4,0.3,2.6-0.1,3.6-0.8L30,47.3c0.8-0.8,0.9-2,0.5-2.9c5.2-5.2,8-8,9.8-9.7c0.3-0.3,0.8-0.6,1.2-0.9
		c1.3-0.7,2.8-0.4,3.6,0.9c0.3,0.5,0.6,1.2,0.7,1.8c0.1,0.9,0.6,1.5,1.1,2.1c0.5,0.6,1.1,1.1,1.7,1.7c0.6,0.6,0.9,0.6,1.5,0.1
		c1.1-1,2.1-2.1,3.1-3.1c0.5-0.5,1.1-1.1,1.6-1.6C55.3,35.1,55.3,34.8,54.8,34.3z M14.5,58.3l-1.7-1.7l12.7-12.7l1.7,1.7L14.5,58.3z
		"/>
</g>
<g id="Desktop_Admin">
	<g id="Grid">
	</g>
	<g id="Mentor_Block">
	</g>
</g>
</svg>
